<svg width="44" height="45" viewBox="0 0 44 45" fill="none" xmlns="http://www.w3.org/2000/svg">
<path d="M19.0943 13.1295C16.5706 13.2641 15.4969 16.552 15.2755 18.1791H28.7245C30.1082 18.2913 33.8717 17.8761 37.8566 15.3177C41.8415 12.7592 43.6126 6.62106 44 3.87182V0.000413531H21.7509C20.2566 0.000418825 19.8913 -0.0332507 17.1019 0.505377C13.6151 1.17866 9.79623 3.03019 5.14717 7.74319C1.42792 11.5136 0.166038 19.189 0 22.5554C0.664151 22.6116 2.32453 22.4208 3.65283 21.2089C5.31321 19.694 5.64528 17.1692 6.1434 15.8226C6.64151 14.476 8.63396 10.9413 12.2868 8.24815C15.2091 6.09364 19.039 5.4428 20.5887 5.38669H38.5208C38.1887 6.2844 37.1925 8.4838 35.8642 10.0997C34.5359 11.7156 31.7686 12.7928 30.5509 13.1295C27.7836 13.0734 21.6181 12.9948 19.0943 13.1295Z" fill="white"/>
<path d="M24.9057 31.4346C27.4294 31.3 28.5031 28.0121 28.7245 26.385H15.2755C13.8918 26.2728 10.1283 26.6879 6.14339 29.2464C2.15849 31.8049 0.387421 37.943 0 40.6923V44.5637H22.2491C23.7434 44.5637 24.1087 44.5973 26.8981 44.0587C30.3849 43.3854 34.2038 41.5339 38.8528 36.8209C42.5721 33.0505 43.834 25.3751 44 22.0086C43.3358 21.9525 41.6755 22.1433 40.3472 23.3552C38.6868 24.8701 38.3547 27.3949 37.8566 28.7415C37.3585 30.0881 35.366 33.6228 31.7132 36.3159C28.7909 38.4704 24.961 39.1213 23.4113 39.1774H5.47924C5.81132 38.2797 6.80755 36.0803 8.13585 34.4644C9.46415 32.8485 12.2314 31.7713 13.4491 31.4346C16.2164 31.4907 22.3819 31.5693 24.9057 31.4346Z" fill="white"/>
</svg>
